if (_typeface_js && _typeface_js.loadFace) _typeface_js.loadFace({"glyphs":{"0":{"ha":483,"x_min":0,"x_max":0,"o":"m 138 775 b 242 879 138 832 185 879 b 346 775 299 879 346 832 l 346 163 b 242 58 346 106 299 58 b 138 163 185 58 138 106 z m 65 163 b 242 -14 65 65 144 -14 b 418 163 339 -14 418 65 l 418 775 b 242 951 418 872 339 951 b 65 775 144 951 65 872 z "},"1":{"ha":222,"x_min":0,"x_max":0,"o":"m 147 0 l 147 938 l 75 931 l 75 0 z "},"2":{"ha":451,"x_min":0,"x_max":0,"o":"m 336 683 b 307 613 336 667 307 613 l 81 190 b 47 72 81 190 47 128 l 47 0 l 401 0 l 401 72 l 119 72 b 144 157 119 110 144 157 l 371 578 b 408 683 371 578 408 649 l 408 771 b 228 951 408 871 328 951 b 47 771 128 951 47 871 l 47 649 l 119 657 l 119 771 b 228 879 119 831 168 879 b 336 771 288 879 336 831 z "},"3":{"ha":464,"x_min":0,"x_max":0,"o":"m 208 506 l 208 433 l 229 433 b 338 325 289 433 338 385 l 338 167 b 229 58 338 107 289 58 b 121 167 169 58 121 107 l 121 265 l 49 257 l 49 167 b 229 -14 49 67 129 -14 b 410 167 329 -14 410 67 l 410 325 b 324 469 410 383 368 450 b 410 614 368 488 410 554 l 410 771 b 229 951 410 871 329 951 b 49 771 129 951 49 871 l 49 672 l 121 681 l 121 771 b 229 879 121 831 169 879 b 338 771 289 879 338 831 l 338 614 b 229 506 338 554 289 506 z "},"4":{"ha":474,"x_min":0,"x_max":0,"o":"m 310 938 l 29 289 l 29 217 l 310 217 l 310 0 l 382 0 l 382 217 l 442 217 l 442 289 l 382 289 l 382 938 z m 101 289 l 310 771 l 310 289 z "},"5":{"ha":461,"x_min":0,"x_max":0,"o":"m 390 865 l 390 938 l 56 938 l 56 443 l 129 428 b 236 518 139 479 183 518 b 344 410 296 518 344 469 l 344 167 b 236 58 344 107 296 58 b 128 167 176 58 128 107 l 128 260 l 56 251 l 56 167 b 236 -14 56 67 136 -14 b 417 167 336 -14 417 67 l 417 410 b 236 590 417 510 336 590 b 128 556 196 590 158 578 l 128 865 z "},"6":{"ha":478,"x_min":0,"x_max":0,"o":"m 426 385 b 246 565 426 485 346 565 b 138 531 206 565 168 553 l 138 771 b 246 879 138 831 186 879 b 354 771 306 879 354 831 l 354 685 l 426 693 l 426 771 b 246 951 426 871 346 951 b 65 771 146 951 65 871 l 65 167 b 246 -14 65 67 146 -14 b 426 167 346 -14 426 67 z m 354 167 b 246 58 354 107 306 58 b 138 167 186 58 138 107 l 138 385 b 246 493 138 444 186 493 b 354 385 306 493 354 444 z "},"7":{"ha":397,"x_min":0,"x_max":0,"o":"m 378 938 l 31 938 l 31 865 l 296 865 l 76 0 l 149 0 l 378 901 z "},"8":{"ha":469,"x_min":0,"x_max":0,"o":"m 126 339 b 235 447 126 399 175 447 b 343 339 294 447 343 399 l 343 167 b 235 58 343 107 294 58 b 126 167 175 58 126 107 z m 54 628 b 140 483 54 568 96 501 b 54 339 96 464 54 397 l 54 167 b 235 -14 54 67 135 -14 b 415 167 335 -14 415 67 l 415 339 b 329 483 415 397 374 464 b 415 628 374 501 415 568 l 415 771 b 235 951 415 871 335 951 b 54 771 135 951 54 871 z m 126 771 b 235 879 126 831 175 879 b 343 771 294 879 343 831 l 343 628 b 235 519 343 568 294 519 b 126 628 175 519 126 568 z "},"9":{"ha":478,"x_min":0,"x_max":0,"o":"m 51 553 b 232 372 51 453 132 372 b 340 407 272 372 310 385 l 340 167 b 232 58 340 107 292 58 b 124 167 172 58 124 107 l 124 253 l 51 244 l 51 167 b 232 -14 51 67 132 -14 b 413 167 332 -14 413 67 l 413 771 b 232 951 413 871 332 951 b 51 771 132 951 51 871 z m 124 771 b 232 879 124 831 172 879 b 340 771 292 879 340 831 l 340 553 b 232 444 340 493 292 444 b 124 553 172 444 124 493 z "},"G":{"ha":479,"x_min":0,"x_max":0,"o":"m 243 408 l 351 408 l 351 167 b 243 58 351 107 303 58 b 135 167 183 58 135 107 l 135 771 b 243 879 135 831 183 879 b 351 771 303 879 351 831 l 351 651 l 424 660 l 424 771 b 243 951 424 871 343 951 b 63 771 143 951 63 871 l 63 167 b 243 -14 63 67 143 -14 b 363 31 289 -14 331 3 l 363 -1 l 424 -14 l 424 481 l 243 481 z "},"H":{"ha":500,"x_min":0,"x_max":0,"o":"m 358 938 l 358 506 l 142 506 l 142 938 l 69 938 l 69 0 l 142 0 l 142 433 l 358 433 l 358 0 l 431 0 l 431 938 z "},"I":{"ha":211,"x_min":0,"x_max":0,"o":"m 142 0 l 142 938 l 69 938 l 69 0 z "},"J":{"ha":458,"x_min":0,"x_max":0,"o":"m 319 167 b 211 58 319 107 271 58 b 103 167 151 58 103 107 l 103 264 l 31 256 l 31 167 b 211 -14 31 67 111 -14 b 392 167 311 -14 392 67 l 392 938 l 319 938 z "},"K":{"ha":458,"x_min":0,"x_max":0,"o":"m 69 0 l 142 0 l 142 433 l 211 433 l 368 0 l 440 0 l 268 469 l 440 938 l 368 938 l 211 506 l 142 506 l 142 938 l 69 938 z "},"L":{"ha":393,"x_min":0,"x_max":0,"o":"m 142 72 l 142 938 l 69 938 l 69 0 l 368 0 l 368 72 z "},"M":{"ha":669,"x_min":0,"x_max":0,"o":"m 525 793 l 528 793 l 528 0 l 600 0 l 600 938 l 490 938 l 335 111 l 332 111 l 178 938 l 69 938 l 69 0 l 142 0 l 142 786 l 144 786 l 293 0 l 375 0 z "},"N":{"ha":522,"x_min":0,"x_max":0,"o":"m 69 0 l 142 0 l 142 750 l 144 750 l 381 0 l 453 0 l 453 938 l 381 938 l 381 226 l 378 226 l 157 938 l 69 938 z "},"O":{"ha":486,"x_min":0,"x_max":0,"o":"m 135 771 b 243 879 135 831 183 879 b 351 771 303 879 351 831 l 351 167 b 243 58 351 107 303 58 b 135 167 183 58 135 107 z m 63 167 b 243 -14 63 67 143 -14 b 424 167 343 -14 424 67 l 424 771 b 243 951 424 871 343 951 b 63 771 143 951 63 871 z "},"P":{"ha":457,"x_min":0,"x_max":0,"o":"m 142 481 l 142 865 l 229 865 b 351 743 297 865 351 811 l 351 603 b 229 481 351 535 297 481 z m 229 408 b 424 603 336 408 424 496 l 424 743 b 229 938 424 850 336 938 l 69 938 l 69 0 l 142 0 l 142 408 z "},"Q":{"ha":486,"x_min":0,"x_max":0,"o":"m 63 167 b 207 -10 63 79 124 6 l 207 -136 l 279 -128 l 279 -10 b 424 167 361 6 424 79 l 424 771 b 243 951 424 871 343 951 b 63 771 143 951 63 871 z m 135 771 b 243 879 135 831 183 879 b 351 771 303 879 351 831 l 351 167 b 243 58 351 107 303 58 b 135 167 183 58 135 107 z "},"R":{"ha":478,"x_min":0,"x_max":0,"o":"m 424 311 b 342 469 424 376 390 433 b 424 628 390 504 424 563 l 424 743 b 229 938 424 850 336 938 l 69 938 l 69 0 l 142 0 l 142 433 l 229 433 b 351 311 297 433 351 379 l 351 0 l 424 0 z m 142 506 l 142 865 l 229 865 b 351 743 297 865 351 811 l 351 628 b 229 506 351 560 297 506 z "},"S":{"ha":456,"x_min":0,"x_max":0,"o":"m 310 329 b 336 257 310 329 336 297 l 336 167 b 228 58 336 107 288 58 b 119 167 168 58 119 107 l 119 313 l 47 304 l 47 167 b 228 -14 47 67 128 -14 b 408 167 328 -14 408 67 l 408 257 b 365 376 408 325 365 376 l 144 639 b 119 708 144 639 119 668 l 119 771 b 228 879 119 831 168 879 b 336 771 288 879 336 831 l 336 646 l 408 654 l 408 771 b 228 951 408 871 328 951 b 47 771 128 951 47 871 l 47 708 b 89 592 47 642 89 592 z "},"T":{"ha":386,"x_min":0,"x_max":0,"o":"m 360 938 l 26 938 l 26 865 l 157 865 l 157 0 l 231 0 l 231 865 l 360 865 z "},"U":{"ha":494,"x_min":0,"x_max":0,"o":"m 356 938 l 356 167 b 247 58 356 107 307 58 b 139 167 188 58 139 107 l 139 938 l 67 938 l 67 167 b 247 -14 67 67 147 -14 b 428 167 347 -14 428 67 l 428 938 z "},"V":{"ha":444,"x_min":0,"x_max":0,"o":"m 224 81 l 221 81 l 90 938 l 18 938 l 161 0 l 283 0 l 426 938 l 354 938 z "},"W":{"ha":669,"x_min":0,"x_max":0,"o":"m 656 938 l 583 938 l 446 163 l 443 163 l 306 938 l 233 938 l 299 571 l 226 163 l 224 163 l 86 938 l 14 938 l 182 0 l 268 0 l 333 368 l 336 368 l 401 0 l 488 0 z "},"X":{"ha":447,"x_min":0,"x_max":0,"o":"m 428 938 l 356 938 l 225 542 l 222 542 l 92 938 l 19 938 l 175 468 l 19 0 l 92 0 l 222 396 l 225 396 l 356 0 l 428 0 l 272 468 z "},"Y":{"ha":428,"x_min":0,"x_max":0,"o":"m 178 431 l 178 0 l 250 0 l 250 431 l 418 938 l 346 938 l 215 542 l 213 542 l 82 938 l 10 938 z "},"Z":{"ha":414,"x_min":0,"x_max":0,"o":"m 25 0 l 383 0 l 383 72 l 110 72 l 383 901 l 383 938 l 39 938 l 39 865 l 301 865 l 25 36 z "},"À":{"ha":444,"x_min":0,"x_max":0,"o":"m 283 938 l 161 938 l 18 0 l 90 0 l 126 240 l 317 240 l 354 0 l 426 0 z m 221 857 l 224 857 l 306 313 l 138 313 z m 290 993 l 290 1065 l 154 1126 l 154 1054 z "},"`":{"ha":178,"x_min":0,"x_max":0,"o":"m 157 718 l 157 790 l 21 851 l 21 779 z "},"a":{"ha":399,"x_min":0,"x_max":0,"o":"m 110 219 b 135 261 110 247 135 261 l 242 322 b 265 340 242 322 254 329 l 265 143 b 188 65 265 100 231 65 b 110 143 144 65 110 100 z m 338 543 b 196 685 338 621 274 685 b 54 543 118 685 54 621 l 54 454 l 126 463 l 126 543 b 196 613 126 582 157 613 b 265 543 235 613 265 582 l 265 475 b 206 385 265 419 206 385 l 99 324 b 38 219 99 324 38 289 l 38 143 b 188 -7 38 60 104 -7 b 289 32 226 -7 263 7 b 363 0 307 13 333 0 l 363 72 b 338 97 349 72 338 83 z "},"b":{"ha":414,"x_min":0,"x_max":0,"o":"m 60 0 l 110 0 l 122 53 b 228 -7 146 17 185 -7 b 360 143 300 -7 360 60 l 360 535 b 228 685 360 618 300 685 b 132 638 190 685 156 667 l 132 938 l 60 929 z m 132 535 b 210 613 132 578 167 613 b 288 535 253 613 288 578 l 288 143 b 210 65 288 100 253 65 b 132 143 167 65 132 100 z "},"c":{"ha":393,"x_min":0,"x_max":0,"o":"m 279 224 l 279 143 b 201 65 279 100 244 65 b 124 143 158 65 124 100 l 124 535 b 201 613 124 578 158 613 b 279 535 244 613 279 578 l 279 447 l 351 456 l 351 535 b 201 685 351 618 285 685 b 51 535 118 685 51 618 l 51 143 b 201 -7 51 60 118 -7 b 351 143 285 -7 351 60 l 351 224 z "},"e":{"ha":397,"x_min":0,"x_max":0,"o":"m 279 224 l 279 143 b 201 65 279 100 244 65 b 124 143 158 65 124 100 l 124 326 l 351 326 l 351 535 b 201 685 351 618 285 685 b 51 535 118 685 51 618 l 51 143 b 201 -7 51 60 118 -7 b 351 143 285 -7 351 60 l 351 232 z m 124 535 b 201 613 124 578 158 613 b 279 535 244 613 279 578 l 279 399 l 124 399 z "},"f":{"ha":269,"x_min":0,"x_max":0,"o":"m 18 606 l 93 606 l 93 0 l 165 0 l 165 606 l 253 606 l 253 678 l 165 678 l 165 804 b 226 865 165 838 193 865 l 253 865 l 253 938 l 226 938 b 93 804 153 938 93 878 l 93 678 l 18 678 z "},"g":{"ha":392,"x_min":0,"x_max":0,"o":"m 44 -75 b 194 -225 44 -158 111 -225 b 344 -75 278 -225 344 -158 l 344 -11 b 194 139 344 72 278 139 b 157 176 174 139 157 156 b 194 214 157 197 174 214 b 344 364 278 214 344 281 l 344 678 l 294 678 l 282 625 b 176 685 258 661 219 685 b 44 535 104 685 44 618 l 44 364 b 106 242 44 314 68 269 b 85 176 92 224 85 200 b 106 110 85 151 92 128 b 44 -11 68 83 44 39 z m 272 364 b 194 286 272 321 238 286 b 117 364 151 286 117 321 l 117 535 b 194 613 117 578 151 613 b 272 535 238 613 272 578 z m 117 -11 b 194 67 117 32 151 67 b 272 -11 238 67 272 32 l 272 -75 b 194 -153 272 -118 238 -153 b 117 -75 151 -153 117 -118 z "},"h":{"ha":418,"x_min":0,"x_max":0,"o":"m 132 535 b 210 613 132 578 167 613 b 288 535 253 613 288 578 l 288 0 l 360 0 l 360 535 b 228 685 360 618 300 685 b 132 638 190 685 156 667 l 132 938 l 60 929 l 60 0 l 132 0 z "},"i":{"ha":192,"x_min":0,"x_max":0,"o":"m 132 0 l 60 0 l 60 678 l 132 678 z m 60 756 l 132 756 l 132 853 l 60 853 z "},"j":{"ha":192,"x_min":0,"x_max":0,"o":"m 132 678 l 60 678 l 60 -92 b -1 -153 60 -125 32 -153 l -28 -153 l -28 -225 l -1 -225 b 132 -92 72 -225 132 -165 z m 60 756 l 132 756 l 132 853 l 60 853 z "},"k":{"ha":397,"x_min":0,"x_max":0,"o":"m 304 0 l 376 0 l 240 375 l 376 678 l 304 678 l 183 411 l 132 411 l 132 938 l 60 929 l 60 0 l 132 0 l 132 339 l 181 339 z "},"l":{"ha":201,"x_min":0,"x_max":0,"o":"m 161 65 b 133 93 146 65 133 78 l 133 938 l 61 929 l 61 93 b 161 -7 61 38 106 -7 z "},"m":{"ha":646,"x_min":0,"x_max":0,"o":"m 515 0 l 588 0 l 588 535 b 438 685 588 618 521 685 b 326 635 393 685 353 665 b 228 685 301 665 267 685 b 122 625 185 685 146 661 l 110 678 l 60 678 l 60 0 l 132 0 l 132 535 b 210 613 132 578 167 613 b 288 535 253 613 288 578 l 288 0 l 360 0 l 360 535 b 438 613 360 578 394 613 b 515 535 481 613 515 578 z "},"n":{"ha":418,"x_min":0,"x_max":0,"o":"m 132 0 l 132 535 b 210 613 132 578 167 613 b 288 535 253 613 288 578 l 288 0 l 360 0 l 360 535 b 228 685 360 618 300 685 b 122 625 185 685 146 661 l 110 678 l 60 678 l 60 0 z "},"o":{"ha":403,"x_min":0,"x_max":0,"o":"m 51 143 b 201 -7 51 60 118 -7 b 351 143 285 -7 351 60 l 351 535 b 201 685 351 618 285 685 b 51 535 118 685 51 618 z m 124 535 b 201 613 124 578 158 613 b 279 535 244 613 279 578 l 279 143 b 201 65 279 100 244 65 b 124 143 158 65 124 100 z "},"p":{"ha":414,"x_min":0,"x_max":0,"o":"m 60 -225 l 132 -217 l 132 40 b 228 -7 156 11 190 -7 b 360 143 300 -7 360 60 l 360 535 b 228 685 360 618 300 685 b 122 625 185 685 146 661 l 110 678 l 60 678 z m 132 535 b 210 613 132 578 167 613 b 288 535 253 613 288 578 l 288 143 b 210 65 288 100 253 65 b 132 143 167 65 132 100 z "},"q":{"ha":414,"x_min":0,"x_max":0,"o":"m 354 678 l 304 678 l 292 625 b 186 685 268 661 229 685 b 54 535 114 685 54 618 l 54 143 b 186 -7 54 60 114 -7 b 282 40 224 -7 258 11 l 282 -225 l 354 -217 z m 282 143 b 204 65 282 100 247 65 b 126 143 161 65 126 100 l 126 535 b 204 613 126 578 161 613 b 282 535 247 613 282 578 z "},"r":{"ha":281,"x_min":0,"x_max":0,"o":"m 267 685 b 122 625 193 685 146 661 l 110 678 l 60 678 l 60 0 l 132 0 l 132 528 b 215 613 132 575 168 613 l 267 613 z "},"s":{"ha":379,"x_min":0,"x_max":0,"o":"m 267 143 b 189 65 267 100 232 65 b 111 143 146 65 111 100 l 111 218 l 39 210 l 39 143 b 189 -7 39 60 106 -7 b 339 143 272 -7 339 60 l 339 201 b 290 315 339 275 290 315 l 140 440 b 117 499 140 440 117 460 l 117 540 b 189 613 117 581 149 613 b 261 540 229 613 261 581 l 261 469 l 333 478 l 333 540 b 189 685 333 619 268 685 b 44 540 110 685 44 619 l 44 499 b 93 385 44 425 93 385 l 243 260 b 267 201 243 260 267 240 z "},"t":{"ha":282,"x_min":0,"x_max":0,"o":"m 17 606 l 104 606 l 104 93 b 204 -7 104 38 149 -7 l 204 65 b 176 93 189 65 176 78 l 176 606 l 264 606 l 264 678 l 176 678 l 176 817 l 104 808 l 104 678 l 17 678 z "},"u":{"ha":418,"x_min":0,"x_max":0,"o":"m 286 678 l 286 143 b 208 65 286 100 251 65 b 131 143 165 65 131 100 l 131 678 l 58 678 l 58 143 b 190 -7 58 60 118 -7 b 296 53 233 -7 272 17 l 308 0 l 358 0 l 358 678 z "},"v":{"ha":358,"x_min":0,"x_max":0,"o":"m 336 678 l 264 678 l 181 146 l 178 146 l 94 678 l 22 678 l 136 0 l 222 0 z "},"w":{"ha":536,"x_min":0,"x_max":0,"o":"m 267 314 l 269 314 l 314 0 l 400 0 l 514 678 l 442 678 l 358 146 l 356 146 l 272 678 l 200 678 l 232 482 l 181 146 l 178 146 l 94 678 l 22 678 l 136 0 l 222 0 z "},"y":{"ha":357,"x_min":0,"x_max":0,"o":"m 336 678 l 264 678 l 181 146 l 178 146 l 94 678 l 22 678 l 143 0 l 129 -78 b 51 -153 129 -78 115 -153 l 51 -225 b 201 -78 175 -225 201 -78 z "},"z":{"ha":336,"x_min":0,"x_max":0,"o":"m 33 606 l 218 606 l 33 36 l 33 0 l 303 0 l 303 72 l 117 72 l 303 642 l 303 678 l 33 678 z "},"?":{"ha":451,"x_min":0,"x_max":0,"o":"m 165 99 l 165 0 l 238 0 l 238 99 z m 346 663 b 324 608 346 639 324 608 l 193 428 b 165 332 193 428 165 389 l 165 185 l 238 185 l 238 332 b 253 382 238 360 253 382 l 383 563 b 418 663 383 563 418 611 l 418 758 b 226 951 418 865 332 951 b 33 758 119 951 33 865 l 33 653 l 106 661 l 106 758 b 226 879 106 825 160 879 b 346 758 292 879 346 825 z "},".":{"ha":181,"x_min":0,"x_max":0,"o":"m 54 99 l 54 0 l 126 0 l 126 99 z "},"!":{"ha":217,"x_min":0,"x_max":0,"o":"m 144 0 l 72 0 l 72 99 l 144 99 z m 72 938 l 72 185 l 144 185 l 144 938 z "},",":{"ha":247,"x_min":0,"x_max":0,"o":"m 160 13 l 160 99 l 88 99 l 88 0 l 124 0 b 88 -43 124 -22 106 -43 l 88 -72 b 160 13 128 -72 160 -35 z "},"@":{"ha":708,"x_min":0,"x_max":0,"o":"m 351 -79 b 124 149 225 -79 124 22 l 124 535 b 351 763 124 661 225 763 b 579 535 478 763 579 661 l 579 104 b 540 65 579 83 561 65 b 501 104 519 65 501 83 l 501 678 l 451 678 l 439 625 b 333 685 415 661 376 685 b 201 535 261 685 201 618 l 201 143 b 351 -7 201 60 268 -7 b 454 47 392 -7 428 8 b 540 -7 475 8 506 -7 b 651 104 601 -7 651 43 l 651 535 b 351 835 651 700 517 835 b 51 535 186 835 51 700 l 51 149 b 351 -151 51 -17 186 -151 l 540 -151 l 540 -79 z m 429 143 b 351 65 429 100 394 65 b 274 143 308 65 274 100 l 274 535 b 351 613 274 578 308 613 b 429 535 394 613 429 578 z "},"#":{"ha":663,"x_min":0,"x_max":0,"o":"m 617 550 l 617 613 l 476 613 l 476 892 l 414 883 l 414 613 l 251 613 l 251 892 l 189 883 l 189 613 l 46 613 l 46 550 l 189 550 l 189 388 l 46 388 l 46 325 l 189 325 l 189 46 l 251 54 l 251 325 l 414 325 l 414 46 l 476 54 l 476 325 l 617 325 l 617 388 l 476 388 l 476 550 z m 251 550 l 414 550 l 414 388 l 251 388 z "},"&":{"ha":521,"x_min":0,"x_max":0,"o":"m 361 179 b 240 58 361 113 307 58 b 119 179 174 58 119 113 l 119 311 b 240 432 119 378 174 432 b 361 311 307 432 361 378 z m 240 504 b 147 597 189 504 147 546 l 147 786 b 240 879 147 838 189 879 b 333 786 292 879 333 838 l 333 688 l 406 696 l 406 786 b 240 951 406 878 332 951 b 75 786 149 951 75 878 l 75 597 b 133 471 75 546 97 501 b 47 311 82 436 47 378 l 47 179 b 240 -14 47 72 133 -14 b 433 179 347 -14 433 72 l 433 311 b 392 432 433 357 418 399 l 489 432 l 489 504 z "},"+":{"ha":447,"x_min":0,"x_max":0,"o":"m 260 471 l 260 608 l 188 608 l 188 471 l 50 471 l 50 399 l 188 399 l 188 261 l 260 261 l 260 399 l 397 399 l 397 471 z "},"=":{"ha":406,"x_min":0,"x_max":0,"o":"m 57 571 l 57 499 l 349 499 l 349 571 z m 57 371 l 57 299 l 349 299 l 349 371 z "},"$":{"ha":453,"x_min":0,"x_max":0,"o":"m 308 329 b 335 257 308 329 335 297 l 335 167 b 226 58 335 107 286 58 b 118 167 167 58 118 107 l 118 313 l 46 304 l 46 167 b 190 -10 46 79 107 6 l 190 -100 l 263 -92 l 263 -10 b 407 167 344 6 407 79 l 407 257 b 364 376 407 325 364 376 l 143 639 b 118 708 143 639 118 668 l 118 771 b 226 879 118 831 167 879 b 335 771 286 879 335 831 l 335 646 l 407 654 l 407 771 b 263 947 407 858 344 931 l 263 1038 l 190 1029 l 190 947 b 46 771 107 931 46 858 l 46 708 b 88 592 46 642 88 592 z "},"*":{"ha":347,"x_min":0,"x_max":0,"o":"m 283 885 l 192 832 l 192 938 l 154 938 l 154 832 l 64 885 l 46 853 l 136 801 l 46 749 l 64 717 l 154 768 l 154 664 l 192 664 l 192 768 l 283 717 l 301 749 l 211 801 l 301 853 z "},"«":{"ha":428,"x_min":0,"x_max":0,"o":"m 172 111 l 244 111 l 107 346 l 244 581 l 172 581 l 35 346 z m 307 111 l 379 111 l 242 346 l 379 581 l 307 581 l 169 346 z "},"»":{"ha":428,"x_min":0,"x_max":0,"o":"m 393 346 l 256 581 l 183 581 l 321 346 l 183 111 l 256 111 z m 258 346 l 121 581 l 49 581 l 186 346 l 49 111 l 121 111 z "},"‹":{"ha":293,"x_min":0,"x_max":0,"o":"m 172 111 l 244 111 l 107 346 l 244 581 l 172 581 l 35 346 z "},"›":{"ha":293,"x_min":0,"x_max":0,"o":"m 258 346 l 121 581 l 49 581 l 186 346 l 49 111 l 121 111 z "},"<":{"ha":383,"x_min":0,"x_max":0,"o":"m 254 200 l 329 200 l 108 435 l 329 669 l 254 669 l 33 435 z "},">":{"ha":383,"x_min":0,"x_max":0,"o":"m 350 435 l 129 669 l 54 669 l 275 435 l 54 200 l 129 200 z "},":":{"ha":181,"x_min":0,"x_max":0,"o":"m 54 99 l 54 0 l 126 0 l 126 99 z m 54 571 l 54 472 l 126 472 l 126 571 z "},";":{"ha":181,"x_min":0,"x_max":0,"o":"m 54 571 l 54 472 l 126 472 l 126 571 z m 126 13 l 126 99 l 54 99 l 54 0 l 90 0 b 54 -43 90 -22 72 -43 l 54 -72 b 126 13 94 -72 126 -35 z "},"’":{"ha":168,"x_min":0,"x_max":0,"o":"m 124 851 l 124 938 l 51 938 l 51 839 l 88 839 b 51 796 88 817 69 796 l 51 767 b 124 851 92 767 124 804 z "},"‘":{"ha":171,"x_min":0,"x_max":0,"o":"m 49 853 l 49 767 l 121 767 l 121 865 l 85 865 b 121 908 85 888 103 908 l 121 938 b 49 853 81 938 49 900 z "},"”":{"ha":282,"x_min":0,"x_max":0,"o":"m 238 851 l 238 938 l 165 938 l 165 839 l 201 839 b 165 796 201 817 183 796 l 165 767 b 238 851 206 767 238 804 z m 124 851 l 124 938 l 51 938 l 51 839 l 88 839 b 51 796 88 817 69 796 l 51 767 b 124 851 92 767 124 804 z "},"“":{"ha":285,"x_min":0,"x_max":0,"o":"m 49 853 l 49 767 l 121 767 l 121 865 l 85 865 b 121 908 85 888 103 908 l 121 938 b 49 853 81 938 49 900 z m 163 853 l 163 767 l 235 767 l 235 865 l 199 865 b 235 908 199 888 217 908 l 235 938 b 163 853 194 938 163 900 z "},"|":{"ha":201,"x_min":0,"x_max":0,"o":"m 69 1076 l 69 -97 l 132 -89 l 132 1076 z "},"/":{"ha":424,"x_min":0,"x_max":0,"o":"m 343 1013 l 18 -75 l 81 -75 l 406 1013 z "},"\\":{"ha":424,"x_min":0,"x_max":0,"o":"m 18 1013 l 343 -75 l 406 -75 l 81 1013 z "},"[":{"ha":300,"x_min":0,"x_max":0,"o":"m 271 1076 l 69 1076 l 69 -194 l 271 -194 l 271 -132 l 132 -132 l 132 1014 l 271 1014 z "},"]":{"ha":300,"x_min":0,"x_max":0,"o":"m 29 1014 l 168 1014 l 168 -132 l 29 -132 l 29 -194 l 231 -194 l 231 1076 l 29 1076 z "},"(":{"ha":258,"x_min":0,"x_max":0,"o":"m 233 -144 b 113 418 167 -144 113 107 l 113 419 b 233 982 113 731 167 982 l 233 1013 b 40 419 126 1013 40 747 l 40 418 b 233 -175 40 90 126 -175 z "},")":{"ha":258,"x_min":0,"x_max":0,"o":"m 25 -175 b 218 418 132 -175 218 90 l 218 419 b 25 1013 218 747 132 1013 l 25 982 b 146 419 92 982 146 731 l 146 418 b 25 -144 146 107 92 -144 z "},"{":{"ha":289,"x_min":0,"x_max":0,"o":"m 136 442 b 171 497 163 457 171 476 l 171 989 b 196 1014 171 1003 182 1014 l 258 1014 l 258 1076 l 196 1076 b 108 989 147 1076 108 1038 l 108 497 b 83 472 108 483 97 472 l 21 472 l 21 410 l 83 410 b 108 385 97 410 108 399 l 108 -107 b 196 -194 108 -156 147 -194 l 258 -194 l 258 -132 l 196 -132 b 171 -107 182 -132 171 -121 l 171 385 b 136 440 171 406 163 425 z "},"}":{"ha":289,"x_min":0,"x_max":0,"o":"m 153 440 b 118 385 126 425 118 406 l 118 -107 b 93 -132 118 -121 107 -132 l 31 -132 l 31 -194 l 93 -194 b 181 -107 142 -194 181 -156 l 181 385 b 206 410 181 399 192 410 l 268 410 l 268 472 l 206 472 b 181 497 192 472 181 483 l 181 989 b 93 1076 181 1038 142 1076 l 31 1076 l 31 1014 l 93 1014 b 118 989 107 1014 118 1003 l 118 497 b 153 442 118 476 126 457 z "},"-":{"ha":372,"x_min":0,"x_max":0,"o":"m 318 360 l 318 432 l 54 432 l 54 360 z "},"–":{"ha":503,"x_min":0,"x_max":0,"o":"m 449 360 l 449 432 l 54 432 l 54 360 z "},"—":{"ha":614,"x_min":0,"x_max":0,"o":"m 567 360 l 567 432 l 47 432 l 47 360 z "},"_":{"ha":488,"x_min":0,"x_max":0,"o":"m 433 -76 l 433 -14 l 54 -14 l 54 -76 z "},"Á":{"ha":444,"x_min":0,"x_max":0,"o":"m 283 938 l 161 938 l 18 0 l 90 0 l 126 240 l 317 240 l 354 0 l 426 0 z m 221 857 l 224 857 l 306 313 l 138 313 z m 290 1039 l 290 1111 l 154 1050 l 154 978 z "},"Â":{"ha":444,"x_min":0,"x_max":0,"o":"m 283 938 l 161 938 l 18 0 l 90 0 l 126 240 l 317 240 l 354 0 l 426 0 z m 221 857 l 224 857 l 306 313 l 138 313 z m 222 1126 l 128 1065 l 128 993 l 222 1054 l 317 993 l 317 1065 z "},"Ä":{"ha":444,"x_min":0,"x_max":0,"o":"m 283 938 l 161 938 l 18 0 l 90 0 l 126 240 l 317 240 l 354 0 l 426 0 z m 221 857 l 224 857 l 306 313 l 138 313 z m 197 1092 l 125 1092 l 125 1007 l 197 1007 z m 319 1092 l 247 1092 l 247 1007 l 319 1007 z "},"È":{"ha":410,"x_min":0,"x_max":0,"o":"m 369 865 l 369 938 l 69 938 l 69 0 l 381 0 l 381 72 l 142 72 l 142 432 l 310 432 l 310 506 l 142 506 l 142 865 z m 288 993 l 288 1065 l 151 1126 l 151 1054 z "},"É":{"ha":410,"x_min":0,"x_max":0,"o":"m 369 865 l 369 938 l 69 938 l 69 0 l 381 0 l 381 72 l 142 72 l 142 432 l 310 432 l 310 506 l 142 506 l 142 865 z m 288 1054 l 288 1126 l 151 1065 l 151 993 z "},"´":{"ha":178,"x_min":0,"x_max":0,"o":"m 157 779 l 157 851 l 21 790 l 21 718 z "},"Ì":{"ha":211,"x_min":0,"x_max":0,"o":"m 142 0 l 142 938 l 69 938 l 69 0 z m 174 993 l 174 1065 l 38 1126 l 38 1054 z "},"Í":{"ha":211,"x_min":0,"x_max":0,"o":"m 142 0 l 142 938 l 69 938 l 69 0 z m 174 1054 l 174 1126 l 38 1065 l 38 993 z "},"¨":{"ha":236,"x_min":0,"x_max":0,"o":"m 93 814 l 21 814 l 21 729 l 93 729 z m 215 814 l 143 814 l 143 729 l 215 729 z "},"Ë":{"ha":410,"x_min":0,"x_max":0,"o":"m 369 865 l 369 938 l 69 938 l 69 0 l 381 0 l 381 72 l 142 72 l 142 432 l 310 432 l 310 506 l 142 506 l 142 865 z m 194 1078 l 122 1078 l 122 993 l 194 993 z m 317 1078 l 244 1078 l 244 993 l 317 993 z "},"Ï":{"ha":211,"x_min":0,"x_max":0,"o":"m 142 0 l 142 938 l 69 938 l 69 0 z m 81 1078 l 8 1078 l 8 993 l 81 993 z m 203 1078 l 131 1078 l 131 993 l 203 993 z "},"Ö":{"ha":486,"x_min":0,"x_max":0,"o":"m 135 771 b 243 879 135 831 183 879 b 351 771 303 879 351 831 l 351 167 b 243 58 351 107 303 58 b 135 167 183 58 135 107 z m 63 167 b 243 -14 63 67 143 -14 b 424 167 343 -14 424 67 l 424 771 b 243 951 424 871 343 951 b 63 771 143 951 63 871 z m 218 1078 l 146 1078 l 146 993 l 218 993 z m 340 1078 l 268 1078 l 268 993 l 340 993 z "},"Ü":{"ha":494,"x_min":0,"x_max":0,"o":"m 356 938 l 356 167 b 247 58 356 107 307 58 b 139 167 188 58 139 107 l 139 938 l 67 938 l 67 167 b 247 -14 67 67 147 -14 b 428 167 347 -14 428 67 l 428 938 z m 222 1078 l 150 1078 l 150 993 l 222 993 z m 344 1078 l 272 1078 l 272 993 l 344 993 z "},"ˆ":{"ha":231,"x_min":0,"x_max":0,"o":"m 115 815 l 21 754 l 21 682 l 115 743 l 210 682 l 210 754 z "},"Ê":{"ha":410,"x_min":0,"x_max":0,"o":"m 369 865 l 369 938 l 69 938 l 69 0 l 381 0 l 381 72 l 142 72 l 142 432 l 310 432 l 310 506 l 142 506 l 142 865 z m 225 1126 l 131 1065 l 131 993 l 225 1054 l 319 993 l 319 1065 z "},"Î":{"ha":211,"x_min":0,"x_max":0,"o":"m 142 0 l 142 938 l 69 938 l 69 0 z m 106 1126 l 11 1065 l 11 993 l 106 1054 l 200 993 l 200 1065 z "},"Ò":{"ha":486,"x_min":0,"x_max":0,"o":"m 135 771 b 243 879 135 831 183 879 b 351 771 303 879 351 831 l 351 167 b 243 58 351 107 303 58 b 135 167 183 58 135 107 z m 63 167 b 243 -14 63 67 143 -14 b 424 167 343 -14 424 67 l 424 771 b 243 951 424 871 343 951 b 63 771 143 951 63 871 z m 311 993 l 311 1065 l 175 1126 l 175 1054 z "},"Ó":{"ha":486,"x_min":0,"x_max":0,"o":"m 135 771 b 243 879 135 831 183 879 b 351 771 303 879 351 831 l 351 167 b 243 58 351 107 303 58 b 135 167 183 58 135 107 z m 63 167 b 243 -14 63 67 143 -14 b 424 167 343 -14 424 67 l 424 771 b 243 951 424 871 343 951 b 63 771 143 951 63 871 z m 311 1054 l 311 1126 l 175 1065 l 175 993 z "},"Ô":{"ha":486,"x_min":0,"x_max":0,"o":"m 135 771 b 243 879 135 831 183 879 b 351 771 303 879 351 831 l 351 167 b 243 58 351 107 303 58 b 135 167 183 58 135 107 z m 63 167 b 243 -14 63 67 143 -14 b 424 167 343 -14 424 67 l 424 771 b 243 951 424 871 343 951 b 63 771 143 951 63 871 z m 243 1126 l 149 1065 l 149 993 l 243 1054 l 338 993 l 338 1065 z "},"Ù":{"ha":494,"x_min":0,"x_max":0,"o":"m 356 938 l 356 167 b 247 58 356 107 307 58 b 139 167 188 58 139 107 l 139 938 l 67 938 l 67 167 b 247 -14 67 67 147 -14 b 428 167 347 -14 428 67 l 428 938 z m 315 993 l 315 1065 l 179 1126 l 179 1054 z "},"Ú":{"ha":494,"x_min":0,"x_max":0,"o":"m 356 938 l 356 167 b 247 58 356 107 307 58 b 139 167 188 58 139 107 l 139 938 l 67 938 l 67 167 b 247 -14 67 67 147 -14 b 428 167 347 -14 428 67 l 428 938 z m 315 1054 l 315 1126 l 179 1065 l 179 993 z "},"Û":{"ha":494,"x_min":0,"x_max":0,"o":"m 356 938 l 356 167 b 247 58 356 107 307 58 b 139 167 188 58 139 107 l 139 938 l 67 938 l 67 167 b 247 -14 67 67 147 -14 b 428 167 347 -14 428 67 l 428 938 z m 247 1126 l 153 1065 l 153 993 l 247 1054 l 342 993 l 342 1065 z "},"Æ":{"ha":683,"x_min":0,"x_max":0,"o":"m 643 938 l 161 938 l 18 0 l 90 0 l 126 240 l 317 240 l 354 0 l 654 0 l 654 72 l 415 72 l 361 432 l 583 432 l 583 506 l 350 506 l 294 865 l 643 865 z m 221 857 l 224 857 l 306 313 l 138 313 z "},"Œ":{"ha":692,"x_min":0,"x_max":0,"o":"m 63 167 b 243 -14 63 67 143 -14 b 314 0 268 -14 292 -8 l 663 0 l 663 72 l 397 72 b 424 167 414 99 424 132 l 424 432 l 592 432 l 592 506 l 424 506 l 424 771 b 397 865 424 806 414 838 l 651 865 l 651 938 l 314 938 b 243 951 292 946 268 951 b 63 771 143 951 63 871 z m 135 771 b 243 879 135 831 183 879 b 351 771 303 879 351 831 l 351 167 b 243 58 351 107 303 58 b 135 167 183 58 135 107 z "},"¿":{"ha":451,"x_min":0,"x_max":0,"o":"m 286 839 l 286 938 l 214 938 l 214 839 z m 106 275 b 128 329 106 299 128 329 l 258 510 b 286 606 258 510 286 549 l 286 753 l 214 753 l 214 606 b 199 556 214 578 199 556 l 68 375 b 33 275 68 375 33 326 l 33 179 b 225 -14 33 72 119 -14 b 418 179 332 -14 418 72 l 418 285 l 346 276 l 346 179 b 225 58 346 113 292 58 b 106 179 160 58 106 113 z "},"à":{"ha":399,"x_min":0,"x_max":0,"o":"m 110 219 b 135 261 110 247 135 261 l 242 322 b 265 340 242 322 254 329 l 265 143 b 188 65 265 100 231 65 b 110 143 144 65 110 100 z m 338 543 b 196 685 338 621 274 685 b 54 543 118 685 54 621 l 54 454 l 126 463 l 126 543 b 196 613 126 582 157 613 b 265 543 235 613 265 582 l 265 475 b 206 385 265 419 206 385 l 99 324 b 38 219 99 324 38 289 l 38 143 b 188 -7 38 60 104 -7 b 289 32 226 -7 263 7 b 363 0 307 13 333 0 l 363 72 b 338 97 349 72 338 83 z m 264 747 l 264 819 l 128 881 l 128 808 z "},"á":{"ha":399,"x_min":0,"x_max":0,"o":"m 110 219 b 135 261 110 247 135 261 l 242 322 b 265 340 242 322 254 329 l 265 143 b 188 65 265 100 231 65 b 110 143 144 65 110 100 z m 338 543 b 196 685 338 621 274 685 b 54 543 118 685 54 621 l 54 454 l 126 463 l 126 543 b 196 613 126 582 157 613 b 265 543 235 613 265 582 l 265 475 b 206 385 265 419 206 385 l 99 324 b 38 219 99 324 38 289 l 38 143 b 188 -7 38 60 104 -7 b 289 32 226 -7 263 7 b 363 0 307 13 333 0 l 363 72 b 338 97 349 72 338 83 z m 264 808 l 264 881 l 128 819 l 128 747 z "},"â":{"ha":399,"x_min":0,"x_max":0,"o":"m 110 219 b 135 261 110 247 135 261 l 242 322 b 265 340 242 322 254 329 l 265 143 b 188 65 265 100 231 65 b 110 143 144 65 110 100 z m 338 543 b 196 685 338 621 274 685 b 54 543 118 685 54 621 l 54 454 l 126 463 l 126 543 b 196 613 126 582 157 613 b 265 543 235 613 265 582 l 265 475 b 206 385 265 419 206 385 l 99 324 b 38 219 99 324 38 289 l 38 143 b 188 -7 38 60 104 -7 b 289 32 226 -7 263 7 b 363 0 307 13 333 0 l 363 72 b 338 97 349 72 338 83 z m 196 881 l 101 819 l 101 747 l 196 808 l 290 747 l 290 819 z "},"ä":{"ha":399,"x_min":0,"x_max":0,"o":"m 110 219 b 135 261 110 247 135 261 l 242 322 b 265 340 242 322 254 329 l 265 143 b 188 65 265 100 231 65 b 110 143 144 65 110 100 z m 338 543 b 196 685 338 621 274 685 b 54 543 118 685 54 621 l 54 454 l 126 463 l 126 543 b 196 613 126 582 157 613 b 265 543 235 613 265 582 l 265 475 b 206 385 265 419 206 385 l 99 324 b 38 219 99 324 38 289 l 38 143 b 188 -7 38 60 104 -7 b 289 32 226 -7 263 7 b 363 0 307 13 333 0 l 363 72 b 338 97 349 72 338 83 z m 171 832 l 99 832 l 99 747 l 171 747 z m 293 832 l 221 832 l 221 747 l 293 747 z "},"è":{"ha":397,"x_min":0,"x_max":0,"o":"m 279 224 l 279 143 b 201 65 279 100 244 65 b 124 143 158 65 124 100 l 124 326 l 351 326 l 351 535 b 201 685 351 618 285 685 b 51 535 118 685 51 618 l 51 143 b 201 -7 51 60 118 -7 b 351 143 285 -7 351 60 l 351 232 z m 124 535 b 201 613 124 578 158 613 b 279 535 244 613 279 578 l 279 399 l 124 399 z m 269 747 l 269 819 l 133 881 l 133 808 z "},"é":{"ha":397,"x_min":0,"x_max":0,"o":"m 279 224 l 279 143 b 201 65 279 100 244 65 b 124 143 158 65 124 100 l 124 326 l 351 326 l 351 535 b 201 685 351 618 285 685 b 51 535 118 685 51 618 l 51 143 b 201 -7 51 60 118 -7 b 351 143 285 -7 351 60 l 351 232 z m 124 535 b 201 613 124 578 158 613 b 279 535 244 613 279 578 l 279 399 l 124 399 z m 269 808 l 269 881 l 133 819 l 133 747 z "},"ê":{"ha":397,"x_min":0,"x_max":0,"o":"m 279 224 l 279 143 b 201 65 279 100 244 65 b 124 143 158 65 124 100 l 124 326 l 351 326 l 351 535 b 201 685 351 618 285 685 b 51 535 118 685 51 618 l 51 143 b 201 -7 51 60 118 -7 b 351 143 285 -7 351 60 l 351 232 z m 124 535 b 201 613 124 578 158 613 b 279 535 244 613 279 578 l 279 399 l 124 399 z m 201 881 l 107 819 l 107 747 l 201 808 l 296 747 l 296 819 z "},"ë":{"ha":397,"x_min":0,"x_max":0,"o":"m 279 224 l 279 143 b 201 65 279 100 244 65 b 124 143 158 65 124 100 l 124 326 l 351 326 l 351 535 b 201 685 351 618 285 685 b 51 535 118 685 51 618 l 51 143 b 201 -7 51 60 118 -7 b 351 143 285 -7 351 60 l 351 232 z m 124 535 b 201 613 124 578 158 613 b 279 535 244 613 279 578 l 279 399 l 124 399 z m 176 832 l 104 832 l 104 747 l 176 747 z m 299 832 l 226 832 l 226 747 l 299 747 z "},"ï":{"ha":192,"x_min":0,"x_max":0,"o":"m 132 678 l 60 678 l 60 0 l 132 0 z m 71 832 l -1 832 l -1 747 l 71 747 z m 193 832 l 121 832 l 121 747 l 193 747 z "},"î":{"ha":192,"x_min":0,"x_max":0,"o":"m 132 678 l 60 678 l 60 0 l 132 0 z m 96 881 l 1 819 l 1 747 l 96 808 l 190 747 l 190 819 z "},"ì":{"ha":192,"x_min":0,"x_max":0,"o":"m 132 678 l 60 678 l 60 0 l 132 0 z m 164 747 l 164 819 l 28 881 l 28 808 z "},"í":{"ha":192,"x_min":0,"x_max":0,"o":"m 132 678 l 60 678 l 60 0 l 132 0 z m 164 808 l 164 881 l 28 819 l 28 747 z "},"ô":{"ha":403,"x_min":0,"x_max":0,"o":"m 51 143 b 201 -7 51 60 118 -7 b 351 143 285 -7 351 60 l 351 535 b 201 685 351 618 285 685 b 51 535 118 685 51 618 z m 124 535 b 201 613 124 578 158 613 b 279 535 244 613 279 578 l 279 143 b 201 65 279 100 244 65 b 124 143 158 65 124 100 z m 201 881 l 107 819 l 107 747 l 201 808 l 296 747 l 296 819 z "},"ó":{"ha":403,"x_min":0,"x_max":0,"o":"m 51 143 b 201 -7 51 60 118 -7 b 351 143 285 -7 351 60 l 351 535 b 201 685 351 618 285 685 b 51 535 118 685 51 618 z m 124 535 b 201 613 124 578 158 613 b 279 535 244 613 279 578 l 279 143 b 201 65 279 100 244 65 b 124 143 158 65 124 100 z m 269 808 l 269 881 l 133 819 l 133 747 z "},"ò":{"ha":403,"x_min":0,"x_max":0,"o":"m 51 143 b 201 -7 51 60 118 -7 b 351 143 285 -7 351 60 l 351 535 b 201 685 351 618 285 685 b 51 535 118 685 51 618 z m 124 535 b 201 613 124 578 158 613 b 279 535 244 613 279 578 l 279 143 b 201 65 279 100 244 65 b 124 143 158 65 124 100 z m 269 747 l 269 819 l 133 881 l 133 808 z "},"ö":{"ha":403,"x_min":0,"x_max":0,"o":"m 51 143 b 201 -7 51 60 118 -7 b 351 143 285 -7 351 60 l 351 535 b 201 685 351 618 285 685 b 51 535 118 685 51 618 z m 124 535 b 201 613 124 578 158 613 b 279 535 244 613 279 578 l 279 143 b 201 65 279 100 244 65 b 124 143 158 65 124 100 z m 176 832 l 104 832 l 104 747 l 176 747 z m 299 832 l 226 832 l 226 747 l 299 747 z "},"û":{"ha":418,"x_min":0,"x_max":0,"o":"m 286 678 l 286 143 b 208 65 286 100 251 65 b 131 143 165 65 131 100 l 131 678 l 58 678 l 58 143 b 190 -7 58 60 118 -7 b 296 53 233 -7 272 17 l 308 0 l 358 0 l 358 678 z m 208 881 l 114 819 l 114 747 l 208 808 l 303 747 l 303 819 z "},"ú":{"ha":418,"x_min":0,"x_max":0,"o":"m 286 678 l 286 143 b 208 65 286 100 251 65 b 131 143 165 65 131 100 l 131 678 l 58 678 l 58 143 b 190 -7 58 60 118 -7 b 296 53 233 -7 272 17 l 308 0 l 358 0 l 358 678 z m 276 808 l 276 881 l 140 819 l 140 747 z "},"ù":{"ha":418,"x_min":0,"x_max":0,"o":"m 286 678 l 286 143 b 208 65 286 100 251 65 b 131 143 165 65 131 100 l 131 678 l 58 678 l 58 143 b 190 -7 58 60 118 -7 b 296 53 233 -7 272 17 l 308 0 l 358 0 l 358 678 z m 276 747 l 276 819 l 140 881 l 140 808 z "},"ü":{"ha":418,"x_min":0,"x_max":0,"o":"m 286 678 l 286 143 b 208 65 286 100 251 65 b 131 143 165 65 131 100 l 131 678 l 58 678 l 58 143 b 190 -7 58 60 118 -7 b 296 53 233 -7 272 17 l 308 0 l 358 0 l 358 678 z m 183 832 l 111 832 l 111 747 l 183 747 z m 306 832 l 233 832 l 233 747 l 306 747 z "},"¡":{"ha":217,"x_min":0,"x_max":0,"o":"m 144 938 l 72 938 l 72 839 l 144 839 z m 72 0 l 72 753 l 144 753 l 144 0 z "},"ý":{"ha":357,"x_min":0,"x_max":0,"o":"m 336 678 l 264 678 l 181 146 l 178 146 l 94 678 l 22 678 l 143 0 l 129 -78 b 51 -153 129 -78 115 -153 l 51 -225 b 201 -78 175 -225 201 -78 z m 247 808 l 247 881 l 111 819 l 111 747 z "},"æ":{"ha":611,"x_min":0,"x_max":0,"o":"m 110 219 b 135 261 110 247 135 261 l 243 321 b 265 338 243 321 254 326 l 265 143 b 188 65 265 100 231 65 b 110 143 144 65 110 100 z m 338 535 b 415 613 338 578 372 613 b 493 535 458 613 493 578 l 493 399 l 338 399 z m 493 143 b 415 65 493 100 458 65 b 338 143 372 65 338 100 l 338 326 l 565 326 l 565 535 b 415 685 565 618 499 685 b 304 621 371 685 331 665 b 196 685 278 665 239 685 b 54 543 118 685 54 621 l 54 454 l 126 463 l 126 543 b 196 613 126 582 157 613 b 265 543 235 613 265 582 l 265 475 b 210 381 265 411 210 381 l 100 321 b 38 219 100 321 38 286 l 38 143 b 188 -7 38 60 104 -7 b 301 58 233 -7 275 13 b 415 -7 329 13 369 -7 b 565 143 499 -7 565 60 l 565 232 l 493 224 z "},"œ":{"ha":625,"x_min":0,"x_max":0,"o":"m 124 535 b 201 613 124 578 158 613 b 279 535 244 613 279 578 l 279 143 b 201 65 279 100 244 65 b 124 143 158 65 124 100 z m 351 535 b 429 613 351 578 386 613 b 507 535 472 613 507 578 l 507 399 l 351 399 z m 351 326 l 579 326 l 579 535 b 429 685 579 618 513 685 b 315 618 383 685 343 664 b 201 685 289 664 247 685 b 51 535 118 685 51 618 l 51 143 b 201 -7 51 60 118 -7 b 315 58 247 -7 289 13 b 429 -7 343 13 383 -7 b 579 143 513 -7 579 60 l 579 232 l 507 224 l 507 143 b 429 65 507 100 472 65 b 351 143 386 65 351 100 z "},"˜":{"ha":242,"x_min":0,"x_max":0,"o":"m 71 744 b 83 757 71 751 76 757 b 96 744 90 757 96 751 b 158 682 96 710 124 682 b 221 744 193 682 221 710 l 221 788 l 171 788 l 171 744 b 158 732 171 738 165 732 b 146 744 151 732 146 738 b 83 807 146 779 118 807 b 21 744 49 807 21 779 l 21 700 l 71 700 z "},"Ã":{"ha":444,"x_min":0,"x_max":0,"o":"m 283 938 l 161 938 l 18 0 l 90 0 l 126 240 l 317 240 l 354 0 l 426 0 z m 221 857 l 224 857 l 306 313 l 138 313 z m 172 1069 b 185 1082 172 1076 178 1082 b 197 1069 192 1082 197 1076 b 260 1007 197 1035 225 1007 b 322 1069 294 1007 322 1035 l 322 1113 l 272 1113 l 272 1069 b 260 1057 272 1063 267 1057 b 247 1069 253 1057 247 1063 b 185 1132 247 1104 219 1132 b 122 1069 150 1132 122 1104 l 122 1025 l 172 1025 z "},"Ñ":{"ha":522,"x_min":0,"x_max":0,"o":"m 69 0 l 142 0 l 142 750 l 144 750 l 381 0 l 453 0 l 453 938 l 381 938 l 381 226 l 378 226 l 157 938 l 69 938 z m 211 1056 b 224 1068 211 1063 217 1068 b 236 1056 231 1068 236 1063 b 299 993 236 1021 264 993 b 361 1056 333 993 361 1021 l 361 1099 l 311 1099 l 311 1056 b 299 1043 311 1049 306 1043 b 286 1056 292 1043 286 1049 b 224 1118 286 1090 258 1118 b 161 1056 189 1118 161 1090 l 161 1011 l 211 1011 z "},"ã":{"ha":399,"x_min":0,"x_max":0,"o":"m 110 219 b 135 261 110 247 135 261 l 242 322 b 265 340 242 322 254 329 l 265 143 b 188 65 265 100 231 65 b 110 143 144 65 110 100 z m 338 543 b 196 685 338 621 274 685 b 54 543 118 685 54 621 l 54 454 l 126 463 l 126 543 b 196 613 126 582 157 613 b 265 543 235 613 265 582 l 265 475 b 206 385 265 419 206 385 l 99 324 b 38 219 99 324 38 289 l 38 143 b 188 -7 38 60 104 -7 b 289 32 226 -7 263 7 b 363 0 307 13 333 0 l 363 72 b 338 97 349 72 338 83 z m 146 810 b 158 822 146 817 151 822 b 171 810 165 822 171 817 b 233 747 171 775 199 747 b 296 810 268 747 296 775 l 296 853 l 246 853 l 246 810 b 233 797 246 803 240 797 b 221 810 226 797 221 803 b 158 872 221 844 193 872 b 96 810 124 872 96 844 l 96 765 l 146 765 z "},"ñ":{"ha":418,"x_min":0,"x_max":0,"o":"m 132 0 l 132 535 b 210 613 132 578 167 613 b 288 535 253 613 288 578 l 288 0 l 360 0 l 360 535 b 228 685 360 618 300 685 b 122 625 185 685 146 661 l 110 678 l 60 678 l 60 0 z m 160 810 b 172 822 160 817 165 822 b 185 810 179 822 185 817 b 247 747 185 775 213 747 b 310 810 282 747 310 775 l 310 853 l 260 853 l 260 810 b 247 797 260 803 254 797 b 235 810 240 797 235 803 b 172 872 235 844 207 872 b 110 810 138 872 110 844 l 110 765 l 160 765 z "},"õ":{"ha":403,"x_min":0,"x_max":0,"o":"m 51 143 b 201 -7 51 60 118 -7 b 351 143 285 -7 351 60 l 351 535 b 201 685 351 618 285 685 b 51 535 118 685 51 618 z m 124 535 b 201 613 124 578 158 613 b 279 535 244 613 279 578 l 279 143 b 201 65 279 100 244 65 b 124 143 158 65 124 100 z m 151 810 b 164 822 151 817 157 822 b 176 810 171 822 176 817 b 239 747 176 775 204 747 b 301 810 274 747 301 775 l 301 853 l 251 853 l 251 810 b 239 797 251 803 246 797 b 226 810 232 797 226 803 b 164 872 226 844 199 872 b 101 810 129 872 101 844 l 101 765 l 151 765 z "},"Õ":{"ha":486,"x_min":0,"x_max":0,"o":"m 135 771 b 243 879 135 831 183 879 b 351 771 303 879 351 831 l 351 167 b 243 58 351 107 303 58 b 135 167 183 58 135 107 z m 63 167 b 243 -14 63 67 143 -14 b 424 167 343 -14 424 67 l 424 771 b 243 951 424 871 343 951 b 63 771 143 951 63 871 z m 193 1056 b 206 1068 193 1063 199 1068 b 218 1056 213 1068 218 1063 b 281 993 218 1021 246 993 b 343 1056 315 993 343 1021 l 343 1099 l 293 1099 l 293 1056 b 281 1043 293 1049 288 1043 b 268 1056 274 1043 268 1049 b 206 1118 268 1090 240 1118 b 143 1056 171 1118 143 1090 l 143 1011 l 193 1011 z "},"ﬁ":{"ha":450,"x_min":0,"x_max":0,"o":"m 390 678 l 165 678 l 165 804 b 226 865 165 838 193 865 l 390 865 l 390 938 l 226 938 b 93 804 153 938 93 878 l 93 678 l 18 678 l 18 606 l 93 606 l 93 0 l 165 0 l 165 606 l 318 606 l 318 0 l 390 0 z "},"ﬂ":{"ha":458,"x_min":0,"x_max":0,"o":"m 418 65 b 390 93 403 65 390 78 l 390 938 l 226 938 b 93 804 153 938 93 878 l 93 678 l 18 678 l 18 606 l 93 606 l 93 0 l 165 0 l 165 606 l 253 606 l 253 678 l 165 678 l 165 804 b 226 865 165 838 193 865 l 318 865 l 318 93 b 418 -7 318 38 363 -7 z "},"ﬀ":{"ha":494,"x_min":0,"x_max":0,"o":"m 165 606 l 318 606 l 318 0 l 390 0 l 390 606 l 478 606 l 478 678 l 390 678 l 390 804 b 451 865 390 838 418 865 l 478 865 l 478 938 l 451 938 b 318 804 378 938 318 878 l 318 678 l 165 678 l 165 804 b 226 865 165 838 193 865 l 253 865 l 253 938 l 226 938 b 93 804 153 938 93 878 l 93 678 l 18 678 l 18 606 l 93 606 l 93 0 l 165 0 z "},"'":{"ha":179,"x_min":0,"x_max":0,"o":"m 46 682 l 101 682 l 144 938 l 69 938 z "},"\"":{"ha":276,"x_min":0,"x_max":0,"o":"m 51 769 l 101 769 l 124 938 l 51 938 z m 164 769 l 214 769 l 236 938 l 164 938 z "},"Ý":{"ha":428,"x_min":0,"x_max":0,"o":"m 178 431 l 178 0 l 250 0 l 250 431 l 418 938 l 346 938 l 215 542 l 213 542 l 82 938 l 10 938 z m 282 1054 l 282 1126 l 146 1065 l 146 993 z "},"−":{"ha":461,"x_min":0,"x_max":0,"o":"m 404 399 l 404 471 l 57 471 l 57 399 z "},"±":{"ha":461,"x_min":0,"x_max":0,"o":"m 267 556 l 267 693 l 194 693 l 194 556 l 57 556 l 57 483 l 194 483 l 194 346 l 267 346 l 267 483 l 404 483 l 404 556 z m 404 231 l 404 303 l 57 303 l 57 231 z "},"ÿ":{"ha":357,"x_min":0,"x_max":0,"o":"m 154 832 l 82 832 l 82 747 l 154 747 z m 276 832 l 204 832 l 204 747 l 276 747 z m 336 678 l 264 678 l 181 146 l 178 146 l 94 678 l 22 678 l 143 0 l 129 -78 b 51 -153 129 -78 115 -153 l 51 -225 b 201 -78 175 -225 201 -78 z "},"•":{"ha":350,"x_min":0,"x_max":0,"o":"m 78 415 b 175 318 78 361 121 318 b 272 415 229 318 272 361 b 175 513 272 469 229 513 b 78 415 121 513 78 469 z "},"¸":{"ha":181,"x_min":0,"x_max":0,"o":"m 67 0 l 67 -72 l 90 -72 b 115 -97 104 -72 115 -83 b 90 -122 115 -111 104 -122 b 65 -97 76 -122 65 -111 l 21 -97 b 90 -167 21 -136 51 -167 b 160 -97 129 -167 160 -136 b 103 -29 160 -62 136 -35 l 103 0 z "},"ç":{"ha":393,"x_min":0,"x_max":0,"o":"m 279 224 l 279 143 b 201 65 279 100 244 65 b 124 143 158 65 124 100 l 124 535 b 201 613 124 578 158 613 b 279 535 244 613 279 578 l 279 447 l 351 456 l 351 535 b 201 685 351 618 285 685 b 51 535 118 685 51 618 l 51 143 b 183 -6 51 65 108 3 l 183 -72 l 207 -72 b 232 -97 221 -72 232 -83 b 207 -122 232 -111 221 -122 b 182 -97 193 -122 182 -111 l 138 -97 b 207 -167 138 -136 168 -167 b 276 -97 246 -167 276 -136 b 219 -29 276 -62 253 -35 l 219 -6 b 351 143 294 3 351 65 l 351 224 z "},"Ç":{"ha":471,"x_min":0,"x_max":0,"o":"m 424 632 l 424 771 b 243 951 424 871 343 951 b 63 771 143 951 63 871 l 63 167 b 225 -12 63 72 133 -4 l 225 -72 l 249 -72 b 274 -97 263 -72 274 -83 b 249 -122 274 -111 263 -122 b 224 -97 235 -122 224 -111 l 179 -97 b 249 -167 179 -136 210 -167 b 318 -97 288 -167 318 -136 b 261 -29 318 -62 294 -35 l 261 -12 b 424 167 353 -4 424 72 l 424 294 l 351 294 l 351 167 b 243 58 351 107 303 58 b 135 167 183 58 135 107 l 135 771 b 243 879 135 831 183 879 b 351 771 303 879 351 831 l 351 624 z "},"®":{"ha":783,"x_min":0,"x_max":0,"o":"m 33 446 b 392 88 33 249 194 88 b 750 446 589 88 750 249 b 392 804 750 643 589 804 b 33 446 194 804 33 643 z m 79 446 b 392 758 79 618 219 758 b 704 446 564 758 704 618 b 392 133 704 274 564 133 b 79 446 219 133 79 274 z m 463 247 l 508 247 l 508 365 b 460 440 508 394 494 422 b 508 515 494 458 508 485 l 508 546 b 410 644 508 600 464 644 l 275 644 l 275 247 l 321 247 l 321 417 l 410 417 b 463 364 439 417 463 393 z m 463 517 b 410 464 463 488 439 464 l 321 464 l 321 597 l 410 597 b 463 544 439 597 463 574 z "},"©":{"ha":783,"x_min":0,"x_max":0,"o":"m 508 376 l 463 376 l 463 363 b 392 292 463 324 431 292 b 321 363 353 292 321 324 l 321 526 b 392 597 321 565 353 597 b 463 526 431 597 463 565 l 463 500 l 508 506 l 508 526 b 392 643 508 590 456 643 b 275 526 328 643 275 590 l 275 363 b 392 246 275 299 328 246 b 508 363 456 246 508 299 z m 33 444 b 392 86 33 247 194 86 b 750 444 589 86 750 247 b 392 803 750 642 589 803 b 33 444 194 803 33 642 z m 79 444 b 392 757 79 617 219 757 b 704 444 564 757 704 617 b 392 132 704 272 564 132 b 79 444 219 132 79 272 z "},"°":{"ha":325,"x_min":0,"x_max":0,"o":"m 38 826 b 163 701 38 757 93 701 b 288 826 232 701 288 757 b 163 951 288 896 232 951 b 38 826 93 951 38 896 z m 93 826 b 163 896 93 865 124 896 b 232 826 201 896 232 865 b 163 757 232 788 201 757 b 93 826 124 757 93 788 z "},"%":{"ha":739,"x_min":0,"x_max":0,"o":"m 82 32 l 136 0 l 658 906 l 604 938 z m 42 585 b 156 471 42 522 93 471 b 269 585 218 471 269 522 l 269 831 b 156 944 269 893 218 944 b 42 831 93 944 42 893 z m 207 585 b 156 533 207 557 183 533 b 104 585 128 533 104 557 l 104 831 b 156 882 104 858 128 882 b 207 831 183 882 207 858 z m 471 107 b 585 -7 471 44 522 -7 b 699 107 647 -7 699 44 l 699 353 b 585 467 699 415 647 467 b 471 353 522 467 471 415 z m 636 107 b 585 56 636 79 613 56 b 533 107 557 56 533 79 l 533 353 b 585 404 533 381 557 404 b 636 353 613 404 636 381 z "},"¶":{"ha":608,"x_min":0,"x_max":0,"o":"m 229 938 b 35 743 122 938 35 850 l 35 603 b 229 408 35 496 122 408 l 317 408 l 317 0 l 389 0 l 389 865 l 461 865 l 461 0 l 533 0 l 533 938 z m 229 481 b 107 603 161 481 107 535 l 107 743 b 229 865 107 811 161 865 l 317 865 l 317 481 z "},"€":{"ha":475,"x_min":0,"x_max":0,"o":"m 426 689 l 426 771 b 246 951 426 871 346 951 b 65 771 146 951 65 871 l 65 167 b 246 -14 65 67 146 -14 b 426 167 346 -14 426 67 l 426 253 l 354 253 l 354 167 b 246 58 354 107 306 58 b 138 167 186 58 138 107 l 138 346 l 318 346 l 318 408 l 138 408 l 138 525 l 318 525 l 318 588 l 138 588 l 138 771 b 246 879 138 831 186 879 b 354 771 306 879 354 831 l 354 681 z "},"¢":{"ha":400,"x_min":0,"x_max":0,"o":"m 239 778 l 167 769 l 167 681 b 53 535 101 664 53 606 l 53 143 b 167 -3 53 72 101 13 l 167 -100 l 239 -92 l 239 -3 b 353 143 306 13 353 72 l 353 224 l 281 224 l 281 143 b 203 65 281 100 246 65 b 125 143 160 65 125 100 l 125 535 b 203 613 125 578 160 613 b 281 535 246 613 281 578 l 281 447 l 353 456 l 353 535 b 239 681 353 606 306 664 z "},"†":{"ha":342,"x_min":0,"x_max":0,"o":"m 29 604 l 135 604 l 135 -64 l 207 -56 l 207 604 l 313 604 l 313 676 l 207 676 l 207 938 l 135 929 l 135 676 l 29 676 z "},"‡":{"ha":369,"x_min":0,"x_max":0,"o":"m 43 301 l 149 301 l 149 -64 l 221 -56 l 221 301 l 326 301 l 326 374 l 221 374 l 221 606 l 326 606 l 326 678 l 221 678 l 221 938 l 149 929 l 149 678 l 43 678 l 43 606 l 149 606 l 149 374 l 43 374 z "},"Ÿ":{"ha":428,"x_min":0,"x_max":0,"o":"m 178 431 l 178 0 l 250 0 l 250 431 l 418 938 l 346 938 l 215 542 l 213 542 l 82 938 l 10 938 z m 189 1092 l 117 1092 l 117 1007 l 189 1007 z m 311 1092 l 239 1092 l 239 1007 l 311 1007 z "},"¥":{"ha":467,"x_min":0,"x_max":0,"o":"m 58 358 l 197 358 l 197 286 l 58 286 l 58 214 l 197 214 l 197 0 l 269 0 l 269 214 l 408 214 l 408 286 l 269 286 l 269 358 l 408 358 l 408 431 l 269 431 l 438 938 l 365 938 l 235 542 l 232 542 l 101 938 l 29 938 l 197 431 l 58 431 z "},"§":{"ha":410,"x_min":0,"x_max":0,"o":"m 275 43 b 297 -18 275 43 297 17 l 297 -94 b 206 -187 297 -146 257 -187 b 114 -94 154 -187 114 -146 l 114 29 l 51 22 l 51 -94 b 206 -249 51 -181 121 -249 b 358 -94 290 -249 358 -181 l 358 -18 b 322 83 358 40 322 83 l 271 144 b 358 285 322 169 358 222 l 358 361 b 322 463 358 419 322 463 l 135 686 b 114 744 135 686 114 710 l 114 797 b 206 890 114 849 154 890 b 297 797 257 890 297 849 l 297 692 l 358 699 l 358 797 b 206 951 358 883 290 951 b 51 797 121 951 51 883 l 51 744 b 88 646 51 688 88 646 l 156 564 b 51 418 96 543 51 486 l 51 365 b 88 267 51 308 88 267 z m 275 422 b 297 361 275 422 297 396 l 297 285 b 229 194 297 242 268 204 l 135 307 b 114 365 135 307 114 331 l 114 418 b 200 511 114 468 151 508 z "},"£":{"ha":494,"x_min":0,"x_max":0,"o":"m 43 0 l 263 0 b 449 186 365 0 449 83 l 376 186 b 263 72 376 124 325 72 l 189 72 b 229 186 214 103 229 143 l 229 465 l 376 465 l 376 528 l 229 528 l 229 806 b 303 879 229 846 263 879 b 376 806 343 879 376 846 l 449 806 b 303 951 449 886 383 951 b 157 806 222 951 157 886 l 157 528 l 43 528 l 43 465 l 157 465 l 157 186 b 43 72 157 124 106 72 z "},"·":{"ha":181,"x_min":0,"x_max":0,"o":"m 54 529 l 54 431 l 126 431 l 126 529 z "},"B":{"ha":474,"x_min":0,"x_max":0,"o":"m 229 0 b 424 194 336 0 424 88 l 424 311 b 342 469 424 376 390 433 b 424 628 390 504 424 563 l 424 743 b 229 938 424 850 336 938 l 69 938 l 69 0 z m 351 194 b 229 72 351 126 297 72 l 142 72 l 142 433 l 229 433 b 351 311 297 433 351 379 z m 142 506 l 142 865 l 229 865 b 351 743 297 865 351 811 l 351 628 b 229 506 351 560 297 506 z "},"^":{"ha":517,"x_min":0,"x_max":0,"o":"m 258 1043 l 47 844 l 47 761 l 258 960 l 469 761 l 469 844 z "},"¬":{"ha":715,"x_min":0,"x_max":0,"o":"m 585 238 l 657 246 l 657 515 l 57 515 l 57 443 l 585 443 z "},"…":{"ha":436,"x_min":0,"x_max":0,"o":"m 54 99 l 54 0 l 126 0 l 126 99 z m 182 99 l 182 0 l 254 0 l 254 99 z m 310 99 l 310 0 l 382 0 l 382 99 z "},"¦":{"ha":201,"x_min":0,"x_max":0,"o":"m 71 547 l 133 556 l 133 1013 l 71 1013 z m 71 -61 l 133 -53 l 133 404 l 71 404 z "},"ı":{"ha":192,"x_min":0,"x_max":0,"o":"m 132 678 l 60 678 l 60 0 l 132 0 z "},"x":{"ha":358,"x_min":0,"x_max":0,"o":"m 178 261 l 181 261 l 264 0 l 336 0 l 215 339 l 336 678 l 264 678 l 181 417 l 178 417 l 94 678 l 22 678 l 143 339 l 22 0 l 94 0 z "},"×":{"ha":444,"x_min":0,"x_max":0,"o":"m 390 551 l 339 603 l 222 486 l 106 603 l 54 551 l 171 435 l 54 318 l 106 267 l 222 383 l 339 267 l 390 318 l 274 435 z "},"µ":{"ha":438,"x_min":0,"x_max":0,"o":"m 68 -225 l 140 -217 l 140 8 b 200 -7 158 -1 178 -7 b 306 53 243 -7 282 17 l 318 0 l 368 0 l 368 678 l 296 678 l 296 143 b 218 65 296 100 261 65 b 140 143 175 65 140 100 l 140 678 l 68 678 z "},"⁄":{"ha":610,"x_min":0,"x_max":0,"o":"m 18 32 l 72 0 l 594 906 l 540 938 z "},"ˇ":{"ha":231,"x_min":0,"x_max":0,"o":"m 210 743 l 210 815 l 115 754 l 21 815 l 21 743 l 115 682 z "},"Š":{"ha":456,"x_min":0,"x_max":0,"o":"m 310 329 b 336 257 310 329 336 297 l 336 167 b 228 58 336 107 288 58 b 119 167 168 58 119 107 l 119 313 l 47 304 l 47 167 b 228 -14 47 67 128 -14 b 408 167 328 -14 408 67 l 408 257 b 365 376 408 325 365 376 l 144 639 b 119 708 144 639 119 668 l 119 771 b 228 879 119 831 168 879 b 336 771 288 879 336 831 l 336 646 l 408 654 l 408 771 b 228 951 408 871 328 951 b 47 771 128 951 47 871 l 47 708 b 89 592 47 642 89 592 z m 322 1067 l 322 1139 l 228 1078 l 133 1139 l 133 1067 l 228 1006 z "},"š":{"ha":379,"x_min":0,"x_max":0,"o":"m 267 143 b 189 65 267 100 232 65 b 111 143 146 65 111 100 l 111 218 l 39 210 l 39 143 b 189 -7 39 60 106 -7 b 339 143 272 -7 339 60 l 339 201 b 290 315 339 275 290 315 l 140 440 b 117 499 140 440 117 460 l 117 540 b 189 613 117 581 149 613 b 261 540 229 613 261 581 l 261 469 l 333 478 l 333 540 b 189 685 333 619 268 685 b 44 540 110 685 44 619 l 44 499 b 93 385 44 425 93 385 l 243 260 b 267 201 243 260 267 240 z m 283 808 l 283 881 l 189 819 l 94 881 l 94 808 l 189 747 z "},"ž":{"ha":336,"x_min":0,"x_max":0,"o":"m 33 606 l 218 606 l 33 36 l 33 0 l 303 0 l 303 72 l 117 72 l 303 642 l 303 678 l 33 678 z m 263 808 l 263 881 l 168 819 l 74 881 l 74 808 l 168 747 z "},"Ž":{"ha":414,"x_min":0,"x_max":0,"o":"m 25 0 l 383 0 l 383 72 l 110 72 l 383 901 l 383 938 l 39 938 l 39 865 l 301 865 l 25 36 z m 299 1067 l 299 1139 l 204 1078 l 110 1139 l 110 1067 l 204 1006 z "},"÷":{"ha":456,"x_min":0,"x_max":0,"o":"m 179 561 b 228 513 179 535 201 513 b 276 561 254 513 276 535 b 228 610 276 588 254 610 b 179 561 201 610 179 588 z m 179 308 b 228 260 179 282 201 260 b 276 308 254 260 276 282 b 228 357 276 335 254 357 b 179 308 201 357 179 335 z m 401 399 l 401 471 l 54 471 l 54 399 z "},"Ð":{"ha":535,"x_min":0,"x_max":0,"o":"m 475 743 b 281 938 475 850 388 938 l 114 938 l 114 504 l 18 504 l 18 432 l 114 432 l 114 0 l 281 0 b 475 194 388 0 475 88 z m 282 432 l 282 504 l 186 504 l 186 865 l 281 865 b 403 743 349 865 403 811 l 403 194 b 281 72 403 126 349 72 l 186 72 l 186 432 z "},"ƒ":{"ha":269,"x_min":0,"x_max":0,"o":"m 18 606 l 93 606 l 93 -117 b 32 -178 93 -150 65 -178 l 6 -178 l 6 -250 l 32 -250 b 165 -117 106 -250 165 -190 l 165 606 l 253 606 l 253 678 l 165 678 l 165 804 b 226 865 165 838 193 865 l 253 865 l 253 938 l 226 938 b 93 804 153 938 93 878 l 93 678 l 18 678 z "},"Þ":{"ha":461,"x_min":0,"x_max":0,"o":"m 229 204 b 424 399 336 204 424 292 l 424 539 b 229 733 424 646 336 733 l 142 733 l 142 938 l 69 938 l 69 0 l 142 0 l 142 204 z m 142 276 l 142 661 l 229 661 b 351 539 297 661 351 607 l 351 399 b 229 276 351 331 297 276 z "},"þ":{"ha":414,"x_min":0,"x_max":0,"o":"m 60 -225 l 132 -217 l 132 40 b 228 -7 156 11 190 -7 b 360 143 300 -7 360 60 l 360 535 b 228 685 360 618 300 685 b 132 638 190 685 156 667 l 132 938 l 60 929 z m 132 535 b 210 613 132 578 167 613 b 288 535 253 613 288 578 l 288 143 b 210 65 288 100 253 65 b 132 143 167 65 132 100 z "},"‰":{"ha":1047,"x_min":0,"x_max":0,"o":"m 81 32 l 135 0 l 657 906 l 603 938 z m 40 585 b 154 471 40 522 92 471 b 268 585 217 471 268 522 l 268 831 b 154 944 268 893 217 944 b 40 831 92 944 40 893 z m 206 585 b 154 533 206 557 182 533 b 103 585 126 533 103 557 l 103 831 b 154 882 103 858 126 882 b 206 831 182 882 206 858 z m 469 107 b 583 -7 469 44 521 -7 b 697 107 646 -7 697 44 l 697 353 b 583 467 697 415 646 467 b 469 353 521 467 469 415 z m 635 107 b 583 56 635 79 611 56 b 532 107 556 56 532 79 l 532 353 b 583 404 532 381 556 404 b 635 353 611 404 635 381 z m 781 107 b 894 -7 781 44 832 -7 b 1008 107 957 -7 1008 44 l 1008 353 b 894 467 1008 415 957 467 b 781 353 832 467 781 415 z m 946 107 b 894 56 946 79 922 56 b 843 107 867 56 843 79 l 843 353 b 894 404 843 381 867 404 b 946 353 922 404 946 381 z "},"¤":{"ha":622,"x_min":0,"x_max":0,"o":"m 46 281 l 97 229 l 172 304 b 311 260 211 276 258 260 b 450 304 363 260 411 276 l 526 229 l 578 281 l 501 356 b 547 496 529 394 547 443 b 503 633 547 547 531 594 l 578 708 l 526 760 l 451 685 b 311 732 411 714 364 732 b 171 686 258 732 210 715 l 97 760 l 46 708 l 119 633 b 75 496 92 594 75 547 b 121 356 75 443 92 394 z m 147 496 b 311 660 147 586 221 660 b 475 496 401 660 475 586 b 311 332 475 406 401 332 b 147 496 221 332 147 406 z "},"™":{"ha":689,"x_min":0,"x_max":0,"o":"m 582 851 l 583 851 l 583 375 l 628 375 l 628 938 l 561 938 l 468 442 l 467 442 l 374 938 l 308 938 l 308 375 l 353 375 l 353 847 l 354 847 l 443 375 l 492 375 z m 258 938 l 58 938 l 58 894 l 136 894 l 136 375 l 181 375 l 181 894 l 258 894 z "},"‚":{"ha":247,"x_min":0,"x_max":0,"o":"m 160 13 l 160 99 l 88 99 l 88 0 l 124 0 b 88 -43 124 -22 106 -43 l 88 -72 b 160 13 128 -72 160 -35 z "},"„":{"ha":361,"x_min":0,"x_max":0,"o":"m 274 13 l 274 99 l 201 99 l 201 0 l 238 0 b 201 -43 238 -22 219 -43 l 201 -72 b 274 13 242 -72 274 -35 z m 160 13 l 160 99 l 88 99 l 88 0 l 124 0 b 88 -43 124 -22 106 -43 l 88 -72 b 160 13 128 -72 160 -35 z "},"¾":{"ha":703,"x_min":0,"x_max":0,"o":"m 83 32 l 138 0 l 660 906 l 606 938 z m 43 817 l 106 825 l 106 831 b 157 882 106 858 129 882 b 208 831 185 882 208 858 l 208 790 b 157 739 208 763 185 739 l 143 739 l 143 676 l 157 676 b 208 625 185 676 208 653 l 208 585 b 157 533 208 557 185 533 b 106 585 129 533 106 557 l 106 599 l 43 599 l 43 585 b 157 471 43 522 94 471 b 271 585 219 471 271 522 l 271 625 b 221 707 271 657 257 686 b 271 790 257 728 271 757 l 271 831 b 157 944 271 893 219 944 b 43 831 94 944 43 893 z m 581 460 l 406 146 l 406 83 l 571 83 l 571 0 l 633 0 l 633 83 l 660 83 l 660 146 l 633 146 b 633 460 633 363 633 243 z m 468 146 b 571 335 468 144 571 335 l 571 146 z "},"³":{"ha":322,"x_min":0,"x_max":0,"o":"m 47 817 l 110 825 l 110 831 b 161 882 110 858 133 882 b 213 831 189 882 213 858 l 213 790 b 161 739 213 763 189 739 l 147 739 l 147 676 l 161 676 b 213 625 189 676 213 653 l 213 585 b 161 533 213 557 189 533 b 110 585 133 533 110 557 l 110 599 l 47 599 l 47 585 b 161 471 47 522 99 471 b 275 585 224 471 275 522 l 275 625 b 225 707 275 657 261 686 b 275 790 261 728 275 757 l 275 831 b 161 944 275 893 224 944 b 47 831 99 944 47 893 z "},"¼":{"ha":649,"x_min":0,"x_max":0,"o":"m 29 32 l 83 0 l 606 906 l 551 938 z m 526 460 l 351 146 l 351 83 l 517 83 l 517 0 l 579 0 l 579 83 l 606 83 l 606 146 l 579 146 b 579 460 579 363 579 243 z m 414 146 b 517 335 414 144 517 335 l 517 146 z m 74 478 l 136 478 l 136 938 l 74 929 z "},"¹":{"ha":176,"x_min":0,"x_max":0,"o":"m 57 478 l 119 478 l 119 938 l 57 929 z "},"½":{"ha":697,"x_min":0,"x_max":0,"o":"m 26 32 l 81 0 l 603 906 l 549 938 z m 85 478 l 147 478 l 147 938 l 85 929 z m 492 353 b 543 404 492 381 515 404 b 594 353 571 404 594 381 l 594 344 b 585 317 594 331 585 317 l 447 119 b 429 63 447 119 429 93 l 429 0 l 657 0 l 657 63 l 492 63 b 501 81 492 67 501 81 l 639 278 b 657 344 639 278 657 304 l 657 353 b 543 467 657 415 606 467 b 429 353 481 467 429 415 l 429 331 l 492 339 z "},"²":{"ha":332,"x_min":0,"x_max":0,"o":"m 114 831 b 165 882 114 858 138 882 b 217 831 193 882 217 858 l 217 822 b 207 794 217 808 207 794 l 69 597 b 51 540 69 597 51 571 l 51 478 l 279 478 l 279 540 l 114 540 b 124 558 114 544 124 558 l 261 756 b 279 822 261 756 279 782 l 279 831 b 165 944 279 893 228 944 b 51 831 103 944 51 893 l 51 808 l 114 817 z "},"ø":{"ha":400,"x_min":0,"x_max":0,"o":"m 281 678 l 276 664 b 200 685 254 678 228 685 b 50 535 117 685 50 618 l 50 143 b 76 57 50 111 60 82 l 57 0 l 119 0 l 124 13 b 200 -7 146 0 172 -7 b 350 143 283 -7 350 60 l 350 535 b 324 619 350 567 340 596 l 343 678 z m 122 535 b 200 613 122 578 157 613 b 251 592 219 613 238 604 l 122 196 z m 200 65 b 147 85 179 65 161 72 l 278 479 l 278 143 b 200 65 278 100 243 65 z "},"Ø":{"ha":486,"x_min":0,"x_max":0,"o":"m 354 938 l 347 918 b 243 951 318 939 282 951 b 63 771 143 951 63 871 l 63 167 b 90 69 63 131 72 97 l 69 0 l 132 0 l 138 19 b 243 -14 167 -1 204 -14 b 424 167 343 -14 424 67 l 424 771 b 396 868 424 806 414 840 l 417 938 z m 243 58 b 161 96 210 58 181 72 l 351 722 l 351 167 b 243 58 351 107 303 58 z m 243 879 b 325 842 275 879 304 864 l 135 215 l 135 771 b 243 879 135 831 183 879 z "},"Ł":{"ha":401,"x_min":0,"x_max":0,"o":"m 8 514 l 78 543 l 78 0 l 376 0 l 376 72 l 150 72 l 150 575 l 242 614 l 242 676 l 150 638 l 150 938 l 78 938 l 78 606 l 8 576 z "},"˚":{"ha":233,"x_min":0,"x_max":0,"o":"m 28 1008 b 117 919 28 960 68 919 b 206 1008 165 919 206 960 b 117 1097 206 1057 165 1097 b 28 1008 68 1097 28 1057 z m 72 1008 b 117 1053 72 1033 92 1053 b 161 1008 142 1053 161 1033 b 117 964 161 983 142 964 b 72 1008 92 964 72 983 z "},"Å":{"ha":444,"x_min":0,"x_max":0,"o":"m 133 1015 b 179 938 133 982 151 953 l 161 938 l 18 0 l 90 0 l 126 240 l 317 240 l 354 0 l 426 0 l 283 938 l 265 938 b 311 1015 292 953 311 982 b 222 1104 311 1064 271 1104 b 133 1015 174 1104 133 1064 z m 221 857 l 224 857 l 306 313 l 138 313 z m 178 1015 b 222 1060 178 1040 197 1060 b 267 1015 247 1060 267 1040 b 222 971 267 990 247 971 b 178 1015 197 971 178 990 z "},"å":{"ha":399,"x_min":0,"x_max":0,"o":"m 110 219 b 135 261 110 247 135 261 l 242 322 b 265 340 242 322 254 329 l 265 143 b 188 65 265 100 231 65 b 110 143 144 65 110 100 z m 338 543 b 196 685 338 621 274 685 b 54 543 118 685 54 621 l 54 454 l 126 463 l 126 543 b 196 613 126 582 157 613 b 265 543 235 613 265 582 l 265 475 b 206 385 265 419 206 385 l 99 324 b 38 219 99 324 38 289 l 38 143 b 188 -7 38 60 104 -7 b 289 32 226 -7 263 7 b 363 0 307 13 333 0 l 363 72 b 338 97 349 72 338 83 z m 107 836 b 196 747 107 788 147 747 b 285 836 244 747 285 788 b 196 925 285 885 244 925 b 107 836 147 925 107 885 z m 151 836 b 196 881 151 861 171 881 b 240 836 221 881 240 861 b 196 792 240 811 221 792 b 151 836 171 792 151 811 z "},"ﬄ":{"ha":683,"x_min":0,"x_max":0,"o":"m 643 65 b 615 93 628 65 615 78 l 615 938 l 451 938 b 318 804 378 938 318 878 l 318 678 l 165 678 l 165 804 b 226 865 165 838 193 865 l 253 865 l 253 938 l 226 938 b 93 804 153 938 93 878 l 93 678 l 18 678 l 18 606 l 93 606 l 93 0 l 165 0 l 165 606 l 318 606 l 318 0 l 390 0 l 390 606 l 478 606 l 478 678 l 390 678 l 390 804 b 451 865 390 838 418 865 l 543 865 l 543 93 b 643 -7 543 38 588 -7 z "},"ﬃ":{"ha":675,"x_min":0,"x_max":0,"o":"m 543 0 l 615 0 l 615 678 l 390 678 l 390 804 b 451 865 390 838 418 865 l 615 865 l 615 938 l 451 938 b 318 804 378 938 318 878 l 318 678 l 165 678 l 165 804 b 226 865 165 838 193 865 l 253 865 l 253 938 l 226 938 b 93 804 153 938 93 878 l 93 678 l 18 678 l 18 606 l 93 606 l 93 0 l 165 0 l 165 606 l 318 606 l 318 0 l 390 0 l 390 606 l 543 606 z "},"ł":{"ha":272,"x_min":0,"x_max":0,"o":"m 21 514 l 101 549 l 101 93 b 201 -7 101 38 146 -7 l 201 65 b 174 93 186 65 174 78 l 174 579 l 254 614 l 254 676 l 174 642 l 174 938 l 101 929 l 101 611 l 21 576 z "},"~":{"ha":529,"x_min":0,"x_max":0,"o":"m 415 389 b 356 329 415 356 389 329 b 296 389 322 329 296 356 b 174 511 296 457 242 511 b 51 389 106 511 51 457 l 51 354 l 114 354 l 114 389 b 174 449 114 422 140 449 b 233 389 207 449 233 422 b 356 267 233 321 288 267 b 478 389 424 267 478 321 l 478 424 l 415 424 z "},"ð":{"ha":410,"x_min":0,"x_max":0,"o":"m 210 767 l 279 767 l 279 638 b 183 685 256 667 221 685 b 51 535 111 685 51 618 l 51 143 b 201 -7 51 60 118 -7 b 351 143 285 -7 351 60 l 351 767 l 421 767 l 421 829 l 351 829 l 351 938 l 279 929 l 279 829 l 210 829 z m 279 143 b 201 65 279 100 244 65 b 124 143 158 65 124 100 l 124 535 b 201 613 124 578 158 613 b 279 535 244 613 279 578 z "},"ß":{"ha":579,"x_min":0,"x_max":0,"o":"m 260 499 b 308 385 260 425 308 385 l 458 260 b 482 201 458 260 482 240 l 482 143 b 404 65 482 100 447 65 b 326 143 361 65 326 100 l 326 218 l 254 210 l 254 143 b 404 -7 254 60 321 -7 b 554 143 488 -7 554 60 l 554 201 b 506 315 554 275 506 315 l 356 440 b 332 499 356 440 332 460 l 332 540 b 346 579 332 563 346 579 l 410 657 b 443 739 410 657 443 699 l 443 760 b 251 951 443 865 357 951 b 60 760 146 951 60 865 l 60 0 l 132 0 l 132 760 b 251 879 132 825 186 879 b 371 760 317 879 371 825 l 371 739 b 357 700 371 717 357 700 l 293 622 b 260 540 293 622 260 582 z "},"d":{"ha":414,"x_min":0,"x_max":0,"o":"m 354 938 l 282 929 l 282 638 b 186 685 258 667 224 685 b 54 535 114 685 54 618 l 54 143 b 186 -7 54 60 114 -7 b 292 53 229 -7 268 17 l 304 0 l 354 0 z m 282 143 b 204 65 282 100 247 65 b 126 143 161 65 126 100 l 126 535 b 204 613 126 578 161 613 b 282 535 247 613 282 578 z "},"A":{"ha":444,"x_min":0,"x_max":0,"o":"m 283 938 l 161 938 l 18 0 l 90 0 l 126 240 l 317 240 l 354 0 l 426 0 z m 221 857 l 224 857 l 306 313 l 138 313 z "}," ":{"ha":183,"x_min":0,"x_max":0,"o":""},"C":{"ha":471,"x_min":0,"x_max":0,"o":"m 424 632 l 424 771 b 243 951 424 871 343 951 b 63 771 143 951 63 871 l 63 167 b 243 -14 63 67 143 -14 b 424 167 343 -14 424 67 l 424 294 l 351 294 l 351 167 b 243 58 351 107 303 58 b 135 167 183 58 135 107 l 135 771 b 243 879 135 831 183 879 b 351 771 303 879 351 831 l 351 624 z "},"D":{"ha":490,"x_min":0,"x_max":0,"o":"m 358 194 b 236 72 358 126 304 72 l 142 72 l 142 865 l 236 865 b 358 743 304 865 358 811 z m 431 743 b 236 938 431 850 343 938 l 69 938 l 69 0 l 236 0 b 431 194 343 0 431 88 z "},"E":{"ha":410,"x_min":0,"x_max":0,"o":"m 369 865 l 369 938 l 69 938 l 69 0 l 381 0 l 381 72 l 142 72 l 142 432 l 310 432 l 310 506 l 142 506 l 142 865 z "},"F":{"ha":400,"x_min":0,"x_max":0,"o":"m 369 865 l 369 938 l 69 938 l 69 0 l 142 0 l 142 432 l 310 432 l 310 506 l 142 506 l 142 865 z "},"ª":{"ha":353,"x_min":0,"x_max":0,"o":"m 106 613 b 124 642 106 632 124 642 l 199 685 b 215 697 199 685 207 689 l 215 558 b 161 504 215 529 190 504 b 106 558 131 504 106 529 z m 265 839 b 167 938 265 893 221 938 b 67 839 113 938 67 893 l 67 776 l 118 782 l 118 839 b 167 888 118 865 139 888 b 215 839 193 888 215 865 l 215 792 b 174 728 215 753 174 728 l 99 685 b 56 613 99 685 56 661 l 56 558 b 161 454 56 500 103 454 b 232 481 188 454 213 464 b 283 458 244 467 263 458 l 283 510 b 265 526 274 510 265 517 z "},"º":{"ha":336,"x_min":0,"x_max":0,"o":"m 63 558 b 168 454 63 500 110 454 b 274 558 226 454 274 500 l 274 833 b 168 938 274 892 226 938 b 63 833 110 938 63 892 z m 114 833 b 168 888 114 863 138 888 b 222 833 199 888 222 863 l 222 558 b 168 504 222 529 199 504 b 114 558 138 504 114 529 z "},"˘":{"ha":231,"x_min":0,"x_max":0,"o":"m 151 790 b 115 754 151 771 135 754 b 79 790 96 754 79 771 b 21 790 79 790 21 790 b 115 696 21 738 63 696 b 210 790 168 696 210 738 b 151 790 210 790 151 790 z "},"˙":{"ha":114,"x_min":0,"x_max":0,"o":"m 93 814 l 21 814 l 21 729 l 93 729 z "},"˛":{"ha":189,"x_min":0,"x_max":0,"o":"m 168 -89 b 124 -89 168 -89 124 -89 b 90 -122 124 -107 108 -122 b 58 -87 72 -122 58 -108 b 104 0 58 -71 60 -40 b 76 0 104 0 76 0 b 21 -97 43 -28 21 -65 b 90 -167 21 -136 51 -167 b 168 -89 133 -167 168 -132 z "},"˝":{"ha":356,"x_min":0,"x_max":0,"o":"m 157 779 l 157 851 l 21 790 l 21 718 z m 335 779 l 335 851 l 199 790 l 199 718 z "},"π":{"ha":479,"x_min":0,"x_max":0,"o":"m 17 606 l 89 606 l 89 0 l 161 0 l 161 606 l 317 606 l 317 0 l 389 0 l 389 606 l 461 606 l 461 678 l 17 678 z "},"Ω":{"ha":586,"x_min":0,"x_max":0,"o":"m 515 729 b 293 951 515 851 415 951 b 71 729 171 951 71 851 l 71 306 b 179 72 71 222 179 128 l 43 72 l 43 0 l 251 0 l 251 72 b 143 306 251 156 143 250 l 143 729 b 293 879 143 813 210 879 b 443 729 376 879 443 813 l 443 306 b 335 72 443 250 335 156 l 335 0 l 543 0 l 543 72 l 407 72 b 515 306 407 128 515 222 z "},"∂":{"ha":478,"x_min":0,"x_max":0,"o":"m 51 167 b 232 -14 51 67 132 -14 b 413 167 332 -14 413 67 l 413 771 b 232 951 413 871 332 951 b 51 771 132 951 51 871 l 51 693 l 124 685 l 124 771 b 232 879 124 831 172 879 b 340 771 292 879 340 831 l 340 531 b 232 565 310 553 272 565 b 51 385 132 565 51 485 z m 340 167 b 232 58 340 107 292 58 b 124 167 172 58 124 107 l 124 385 b 232 493 124 444 172 493 b 340 385 292 493 340 444 z "},"∆":{"ha":556,"x_min":0,"x_max":0,"o":"m 538 0 l 339 938 l 217 938 l 18 0 z m 276 857 l 279 857 l 449 72 l 106 72 z "},"∏":{"ha":500,"x_min":0,"x_max":0,"o":"m 358 865 l 358 0 l 431 0 l 431 938 l 69 938 l 69 0 l 142 0 l 142 865 z "},"∑":{"ha":450,"x_min":0,"x_max":0,"o":"m 18 0 l 426 0 l 426 72 l 124 72 l 338 469 l 124 865 l 426 865 l 426 938 l 18 938 l 260 469 z "},"√":{"ha":500,"x_min":0,"x_max":0,"o":"m 35 606 l 93 606 l 196 0 l 282 0 l 457 1067 l 944 1067 l 944 1139 l 397 1139 l 240 146 l 238 146 l 154 678 l 35 678 z "},"∞":{"ha":772,"x_min":0,"x_max":0,"o":"m 196 603 b 29 436 104 603 29 528 b 196 269 29 344 104 269 l 256 269 b 386 332 308 269 356 294 b 517 269 417 294 464 269 l 576 269 b 743 436 668 269 743 344 b 576 603 743 528 668 603 l 517 603 b 386 539 464 603 417 578 b 256 603 356 578 308 603 z m 196 342 b 101 436 143 342 101 383 b 196 531 101 489 143 531 l 256 531 b 350 436 308 531 350 489 b 256 342 350 383 308 342 z m 576 531 b 671 436 629 531 671 489 b 576 342 671 383 629 342 l 517 342 b 422 436 464 342 422 383 b 517 531 422 489 464 531 z "},"∫":{"ha":425,"x_min":0,"x_max":0,"o":"m 249 804 b 310 865 249 838 276 865 b 371 804 343 865 371 838 b 443 804 371 804 443 804 b 310 938 443 878 383 938 b 176 804 236 938 176 878 l 176 -117 b 115 -178 176 -150 149 -178 b 54 -117 82 -178 54 -150 b -18 -117 54 -117 -18 -117 b 115 -250 -18 -190 42 -250 b 249 -117 189 -250 249 -190 z "},"≈":{"ha":425,"x_min":0,"x_max":0,"o":"m 296 571 b 268 543 296 547 278 543 b 157 599 233 543 206 599 b 57 499 94 599 57 561 l 129 499 b 157 526 129 522 147 526 b 268 471 178 526 219 471 b 368 571 331 471 368 508 z m 296 371 b 268 343 296 347 278 343 b 157 399 233 343 206 399 b 57 299 94 399 57 361 l 129 299 b 157 326 129 322 147 326 b 268 271 178 326 219 271 b 368 371 331 271 368 308 z "},"≠":{"ha":406,"x_min":0,"x_max":0,"o":"m 57 371 l 57 299 l 128 299 l 100 201 l 172 201 l 200 299 l 349 299 l 349 371 l 221 371 l 257 499 l 349 499 l 349 571 l 278 571 l 307 668 l 235 668 l 206 571 l 57 571 l 57 499 l 185 499 l 149 371 z "},"≤":{"ha":406,"x_min":0,"x_max":0,"o":"m 57 272 l 57 200 l 349 200 l 349 272 z m 57 400 l 349 400 l 349 472 l 143 472 l 349 669 l 263 669 l 57 472 z "},"≥":{"ha":406,"x_min":0,"x_max":0,"o":"m 57 272 l 57 200 l 349 200 l 349 272 z m 349 472 l 143 669 l 57 669 l 263 472 l 57 472 l 57 400 l 349 400 z "},"◊":{"ha":483,"x_min":0,"x_max":0,"o":"m 199 40 l 285 40 l 440 468 l 285 896 l 199 896 l 43 468 z m 243 119 l 240 119 l 115 468 l 240 815 l 243 815 l 368 468 z "},"¯":{"ha":236,"x_min":0,"x_max":0,"o":"m 215 814 l 21 814 l 21 743 l 215 743 z "}}}
